<svg xmlns="http://www.w3.org/2000/svg" data-name="Layer 1" viewBox="0 0 32 32"><path d="M13.5,3a1.97684,1.97684,0,0,0-1,.27826V3A1.9987,1.9987,0,0,0,9.38043,1.34387,1.99482,1.99482,0,0,0,5.5,2v.27826A1.97684,1.97684,0,0,0,4.5,2a2.00229,2.00229,0,0,0-2,2V8.071A1.976,1.976,0,0,0,2,8a2.00229,2.00229,0,0,0-2,2v5.19482a7.46867,7.46867,0,0,0,.50391,2.70264l2.39453,6.20117A1.48918,1.48918,0,0,1,3,24.63916v1.749A1.48992,1.48992,0,0,0,2.5,27.5v3A1.498,1.498,0,0,0,4,32H14a1.498,1.498,0,0,0,1.5-1.5v-3a1.47307,1.47307,0,0,0-1.14-1.45l.83-4.75a19.99162,19.99162,0,0,0,.31-3.54V5A2.00229,2.00229,0,0,0,13.5,3Zm1,24.5v3a.49514.49514,0,0,1-.5.5H4a.49514.49514,0,0,1-.5-.5v-3A.49511.49511,0,0,1,4,27H14.01A.49293.49293,0,0,1,14.5,27.5Zm0-9.74a20.00129,20.00129,0,0,1-.29,3.37L13.35,26H4V24.63916a2.498,2.498,0,0,0-.168-.90088L1.43652,17.53662A6.479,6.479,0,0,1,1,15.19482V10a1,1,0,0,1,2,0v4.5a.5011.5011,0,0,0,.27637.44727l1.3164.6582A4.33134,4.33134,0,0,1,7,19.5a.5.5,0,0,0,1,0,5.32482,5.32482,0,0,0-2.96-4.78906l-1.04-.52V10a1.98271,1.98271,0,0,0-.5-1.30878V4a1,1,0,0,1,2,0V9.5a.5.5,0,0,0,1,0V2a1,1,0,0,1,2,0v8.5a.5.5,0,0,0,1,0V3a1,1,0,0,1,2,0v9.5a.5.5,0,0,0,1,0V5a1,1,0,0,1,2,0ZM30,8a1.976,1.976,0,0,0-.5.071V4a2.00229,2.00229,0,0,0-2-2,1.97684,1.97684,0,0,0-1,.27826V2a1.99482,1.99482,0,0,0-3.88043-.65613A1.9987,1.9987,0,0,0,19.5,3v.27826A1.97684,1.97684,0,0,0,18.5,3a2.00229,2.00229,0,0,0-2,2V17.76a19.99162,19.99162,0,0,0,.31,3.54l.83,4.75A1.47307,1.47307,0,0,0,16.5,27.5v3A1.498,1.498,0,0,0,18,32H28a1.498,1.498,0,0,0,1.5-1.5v-3a1.48992,1.48992,0,0,0-.5-1.11182v-1.749a1.48918,1.48918,0,0,1,.10156-.54053l2.39453-6.20117A7.46867,7.46867,0,0,0,32,15.19482V10A2.00229,2.00229,0,0,0,30,8ZM28.5,30.5a.49514.49514,0,0,1-.5.5H18a.49514.49514,0,0,1-.5-.5v-3a.49293.49293,0,0,1,.49-.5H28a.49511.49511,0,0,1,.5.5ZM31,15.19482a6.479,6.479,0,0,1-.43652,2.3418L28.168,23.73828a2.498,2.498,0,0,0-.168.90088V26H18.65l-.86-4.87a20.00129,20.00129,0,0,1-.29-3.37V5a1,1,0,0,1,2,0v7.5a.5.5,0,0,0,1,0V3a1,1,0,0,1,2,0v7.5a.5.5,0,0,0,1,0V2a1,1,0,0,1,2,0V9.5a.5.5,0,0,0,1,0V4a1,1,0,0,1,2,0V8.69122A1.98271,1.98271,0,0,0,28,10v4.19092l-1.04.52A5.32482,5.32482,0,0,0,24,19.5a.5.5,0,0,0,1,0,4.33134,4.33134,0,0,1,2.40723-3.89453l1.3164-.6582A.5011.5011,0,0,0,29,14.5V10a1,1,0,0,1,2,0Z"/></svg>