<svg xmlns="http://www.w3.org/2000/svg" width="655.359" height="655.359" fill-rule="evenodd" clip-rule="evenodd" image-rendering="optimizeQuality" shape-rendering="geometricPrecision" text-rendering="geometricPrecision" viewBox="0 0 6.827 6.827"><path d="M5.132 1.28c.004.018.002.007.004.027l-.001.028a.183.183 0 0 1-.076.13.241.241 0 0 1-.16.046h-.003c.004.018.002.007.003.026.001.02.002.009 0 .028a.183.183 0 0 1-.077.13.242.242 0 0 1-.16.046H4.66c.004.018.003.007.004.027v.028a.186.186 0 0 1-.085.136.245.245 0 0 1-.095.037l-.003.059a.262.262 0 0 1 .13.112.186.186 0 0 1 .015.157l-.002.004a.18.18 0 0 1-.044.065l.019.03a.295.295 0 0 1 .194.06.23.23 0 0 1 .084.126.18.18 0 0 1-.02.137l-.013.017a.2.2 0 0 1-.052.047l.019.048a.289.289 0 0 1 .2.108.205.205 0 0 1 .043.128.178.178 0 0 1-.05.118c-.017.018-.006.008-.025.022a.225.225 0 0 1-.051.03l.005.027a.272.272 0 0 1 .189.148c.017.04.02.086.007.128a.189.189 0 0 1-.078.102.228.228 0 0 1-.036.019h-.002l.007.037a.294.294 0 0 1 .046.02c.054.029.1.075.12.134.005.016.003.007.007.028v.003a.18.18 0 0 1-.026.127.21.21 0 0 1-.11.083.26.26 0 0 1-.059.012l-.006.022a.284.284 0 0 1 .123.115h.015l.005.078v.017a.18.18 0 0 1-.061.129.24.24 0 0 1-.145.057l-.002.015c.026.011.05.026.071.044.027.023.05.05.065.081h.015l.005.078v.018a.187.187 0 0 1-.064.133.25.25 0 0 1-.18.06h-.025l-.015.033a.277.277 0 0 1 .073.084h.016l.005.078v.017a.18.18 0 0 1-.062.129.24.24 0 0 1-.178.058.235.235 0 0 1 .033.049H4.7l.004.078v.017a.187.187 0 0 1-.063.134.25.25 0 0 1-.182.06.255.255 0 0 1-.055-.007.28.28 0 0 1-.1-.04l.004.057v.017a.18.18 0 0 1-.061.129.24.24 0 0 1-.174.058.243.243 0 0 1-.052-.007.276.276 0 0 1-.173-.112l-.014.003a.177.177 0 0 1-.015.064.197.197 0 0 1-.092.094.286.286 0 0 1-.365-.116l-.002-.003-.041-.003a.204.204 0 0 1-.113.099.282.282 0 0 1-.189.001l-.006-.002h-.002a.266.266 0 0 1-.139-.113.21.21 0 0 1-.026-.072l-.033-.01a.2.2 0 0 1-.038.036.255.255 0 0 1-.181.04.286.286 0 0 1-.17-.083.203.203 0 0 1-.063-.157l-.04-.02a.282.282 0 0 1-.229.02h-.006l-.001-.001a.266.266 0 0 1-.14-.112.21.21 0 0 1-.026-.073l-.021-.006.024-.065-.049-.038a.293.293 0 0 1-.237-.05.234.234 0 0 1-.09-.124.18.18 0 0 1 .018-.14c.006-.01.005-.007.008-.011l-.026-.036a.288.288 0 0 1-.25-.103.206.206 0 0 1-.046-.128c0-.045.017-.087.047-.12.013-.014.007-.008.017-.016l-.024-.043a.275.275 0 0 1-.207-.148.187.187 0 0 1-.012-.128.188.188 0 0 1 .101-.118l-.006-.045a.255.255 0 0 1-.16-.148c-.04-.106.018-.206.12-.244a.253.253 0 0 1 .044-.012l.004-.021a.305.305 0 0 1-.057-.038.257.257 0 0 1-.065-.081h-.015l-.004-.078v-.018a.187.187 0 0 1 .063-.133.25.25 0 0 1 .182-.06h.015l.007-.015a.26.26 0 0 1-.048-.048A.197.197 0 0 1 1.207 3v-.002a.19.19 0 0 1 .1-.126.266.266 0 0 1 .18-.024l.004.001a.294.294 0 0 1 .018.005l.016-.02a.228.228 0 0 1-.034-.056.184.184 0 0 1-.002-.149l.005-.01a.21.21 0 0 1 .135-.103.289.289 0 0 1 .202.022l.024-.018a.2.2 0 0 1-.017-.107L1.82 2.4l.048-.068.016-.02a.236.236 0 0 1 .163-.07.294.294 0 0 1 .19.06l.033-.013a.181.181 0 0 1 .088-.186.285.285 0 0 1 .352.06l.037-.006a.176.176 0 0 1 .012-.044.195.195 0 0 1 .09-.096.285.285 0 0 1 .317.044l.059-.018a.179.179 0 0 1 .038-.119.22.22 0 0 1 .122-.075.294.294 0 0 1 .27.077l.071-.017V1.9a.183.183 0 0 1 .076-.129.253.253 0 0 1 .18-.045c.05.005.098.023.138.052l.048-.022v-.032a.183.183 0 0 1 .076-.13.241.241 0 0 1 .16-.046h.003c-.003-.018-.002-.007-.003-.027s-.002-.008 0-.028a.183.183 0 0 1 .077-.13.241.241 0 0 1 .16-.045h.003c-.004-.018-.003-.008-.004-.027v-.028a.183.183 0 0 1 .077-.13.241.241 0 0 1 .16-.046h.003c-.004-.018-.002-.007-.004-.026l.001-.028.001-.009a.186.186 0 0 1 .084-.128.249.249 0 0 1 .171-.038l.01.002c.065.009.125.039.17.087.04.043.063.1.057.159a.177.177 0 0 1-.037.092.082.082 0 0 1 .02.03c.045.121.11.195.247.353l.02.023-.061.054.062-.054.002.003c.172.2.21.492.21.493a.082.082 0 0 1-.163.022c0-.001-.032-.245-.172-.408l-.002-.002-.02-.023-.05-.058a.735.735 0 0 0 .022.05c.154.315.074.549.074.55a.083.083 0 0 1-.157-.052s.06-.172-.065-.426a1.003 1.003 0 0 1-.047-.116.49.49 0 0 0 .009.074c.049.25-.063.533-.063.534a.082.082 0 0 1-.154-.06s.095-.24.055-.442c-.034-.174.005-.282.042-.381a.899.899 0 0 0 .026-.08h-.034l-.003-.001zm-.813.667a.279.279 0 0 1-.073-.047l-.029.014a.185.185 0 0 1 .005.047l-.001.012a.183.183 0 0 1-.075.129.253.253 0 0 1-.18.045.289.289 0 0 1-.175-.083l-.07.016a.179.179 0 0 1-.039.102.22.22 0 0 1-.122.076.294.294 0 0 1-.26-.066l-.059.018a.178.178 0 0 1-.013.076.195.195 0 0 1-.09.096.285.285 0 0 1-.34-.067l-.037.006a.181.181 0 0 1-.088.133.265.265 0 0 1-.182.033.292.292 0 0 1-.131-.056l-.032.013v.003a.178.178 0 0 1-.03.13l-.017.02a.236.236 0 0 1-.162.07.295.295 0 0 1-.145-.03l-.024.017.002.005a.184.184 0 0 1 .002.15l-.005.01a.21.21 0 0 1-.135.102.284.284 0 0 1-.149-.001l-.017.021a.197.197 0 0 1 .046.167v.002a.19.19 0 0 1-.098.126.26.26 0 0 1-.143.03l-.007.015a.292.292 0 0 1 .081.095h.015l.005.077v.018a.187.187 0 0 1-.064.133.25.25 0 0 1-.15.06l-.001.008c.04.017.076.042.103.074l.013-.004.026.072a.18.18 0 0 1-.05.202l.003.014-.073.027a.25.25 0 0 1-.023.007l.002.014a.275.275 0 0 1 .207.148.187.187 0 0 1-.007.17l.01.013h-.001v.002l-.067.046a.193.193 0 0 1-.015.01l.01.016a.293.293 0 0 1 .226.103c.03.037.047.081.047.128a.178.178 0 0 1-.047.12v.001l.013.02a.293.293 0 0 1 .227.051c.043.031.076.074.09.125a.18.18 0 0 1-.016.136l.017.013a.282.282 0 0 1 .209-.01l.005.002.002.001c.057.021.108.06.139.112a.197.197 0 0 1 .027.118l.036.017a.257.257 0 0 1 .175-.037.286.286 0 0 1 .17.083.225.225 0 0 1 .059.1l.047.014a.22.22 0 0 1 .077-.05.282.282 0 0 1 .189 0c.004 0 .004.001.006.002h.002a.266.266 0 0 1 .146.126l.042.003a.198.198 0 0 1 .09-.087.286.286 0 0 1 .324.058l.049-.01a.185.185 0 0 1 .054-.085.24.24 0 0 1 .174-.058c.04 0 .08.01.116.028l.025-.012-.002-.036v-.017a.187.187 0 0 1 .064-.134.25.25 0 0 1 .18-.06h.012a.225.225 0 0 1-.026-.04h-.016l-.005-.078v-.017a.18.18 0 0 1 .062-.128.24.24 0 0 1 .173-.059l.011.001.017-.037a.257.257 0 0 1-.075-.09H4.57l-.004-.077v-.018a.187.187 0 0 1 .063-.133.246.246 0 0 1 .134-.059l.003-.026a.293.293 0 0 1-.045-.031.248.248 0 0 1-.061-.075h-.016l-.004-.078v-.017a.18.18 0 0 1 .061-.129.235.235 0 0 1 .125-.055l.009-.028a.247.247 0 0 1-.124-.137c-.006-.016-.005-.006-.008-.028v-.002a.18.18 0 0 1 .025-.127.21.21 0 0 1 .122-.087l-.004-.02a.272.272 0 0 1-.189-.148.186.186 0 0 1-.008-.128.189.189 0 0 1 .08-.102.228.228 0 0 1 .035-.019h.002l-.006-.03a.285.285 0 0 1-.159-.1.205.205 0 0 1-.043-.129.178.178 0 0 1 .05-.118c.018-.018.006-.007.026-.022a.22.22 0 0 1 .013-.01l-.02-.049a.295.295 0 0 1-.15-.06.23.23 0 0 1-.085-.125.18.18 0 0 1 .02-.137l.012-.017a.195.195 0 0 1 .019-.02l-.019-.03a.294.294 0 0 1-.124-.021.263.263 0 0 1-.134-.115.186.186 0 0 1-.014-.157l.001-.003a.2.2 0 0 1 .124-.114.26.26 0 0 1 .04-.01l.002-.062z"/><path fill="none" d="M0 0h6.827v6.827H0z"/></svg>