<?xml version="1.0" encoding="utf-8"?>
<!-- Generator: Adobe Illustrator 16.0.0, SVG Export Plug-In . SVG Version: 6.00 Build 0)  -->
<!DOCTYPE svg PUBLIC "-//W3C//DTD SVG 1.1//EN" "http://www.w3.org/Graphics/SVG/1.1/DTD/svg11.dtd">
<svg version="1.1" id="Layer_1" xmlns="http://www.w3.org/2000/svg" xmlns:xlink="http://www.w3.org/1999/xlink" x="0px" y="0px"
	 width="1024px" height="1098.726px" viewBox="0 0 1024 1098.726" enable-background="new 0 0 1024 1098.726" xml:space="preserve">
<rect x="-0.183" fill="#FFFFFF" width="1024" height="1024.001"/>
<g>
	<rect y="1024.001" fill="#0F0F0F" width="1024" height="74.725"/>
	<g>
		<g>
			<path fill="#FFFFFF" d="M303.33,1048.044h4.639c3.648,0,6.656,0.961,9.018,2.881c2.38,1.9,3.567,4.641,3.567,8.209
				c0,3.676-1.177,6.479-3.541,8.422c-2.354,1.945-5.401,2.916-9.129,2.916h-4.554V1048.044z M306.129,1067.921h0.975
				c1.456,0,2.82-0.15,4.113-0.441c1.284-0.283,2.414-0.775,3.377-1.459c0.963-0.68,1.732-1.576,2.303-2.674
				c0.578-1.104,0.863-2.469,0.863-4.094c0-1.602-0.285-2.967-0.85-4.119c-0.563-1.139-1.352-2.027-2.364-2.67
				c-1.013-0.645-2.126-1.123-3.351-1.424c-1.219-0.293-2.575-0.451-4.092-0.451h-0.975V1067.921z"/>
			<path fill="#FFFFFF" d="M324.661,1063.957c0.037,1.242,0.438,2.326,1.19,3.246c0.775,0.908,1.772,1.363,3.002,1.363
				c0.977,0,1.773-0.215,2.4-0.666c0.623-0.447,1.22-1.129,1.772-2.041l2.259,1.283c-0.654,1.189-1.549,2.117-2.693,2.793
				c-1.137,0.67-2.396,1.02-3.766,1.02c-2.078,0-3.747-0.697-4.993-2.082c-1.235-1.416-1.847-3.154-1.847-5.238
				c0-2.195,0.583-4.012,1.754-5.426c1.153-1.385,2.823-2.078,5.029-2.078c2.143,0,3.757,0.693,4.852,2.078
				c1.109,1.389,1.664,3.162,1.664,5.336v0.412H324.661z M332.609,1061.931c-0.162-1.07-0.563-1.926-1.234-2.543
				c-0.67-0.619-1.532-0.947-2.605-0.947c-0.516,0-0.996,0.09-1.441,0.264c-0.451,0.162-0.841,0.414-1.199,0.721
				c-0.336,0.326-0.625,0.707-0.854,1.127c-0.23,0.424-0.381,0.895-0.46,1.379H332.609z"/>
			<path fill="#FFFFFF" d="M343.17,1059.742c-0.404-0.82-0.992-1.225-1.781-1.225c-0.372,0-0.715,0.127-1.015,0.396
				c-0.3,0.266-0.444,0.602-0.444,0.971c0,0.359,0.111,0.658,0.343,0.898c0.228,0.252,0.538,0.486,0.931,0.709
				c0.262,0.113,0.46,0.213,0.6,0.273c0.135,0.074,0.367,0.176,0.686,0.314c0.158,0.076,0.299,0.15,0.42,0.182
				c0.112,0.043,0.203,0.068,0.262,0.121c0.991,0.449,1.775,0.984,2.353,1.574c0.575,0.6,0.86,1.389,0.86,2.387
				c0,1.311-0.475,2.406-1.428,3.297c-0.932,0.879-2.047,1.314-3.365,1.314c-0.531,0-1.051-0.078-1.541-0.227
				c-0.5-0.148-0.965-0.359-1.387-0.629c-0.427-0.277-0.799-0.59-1.135-0.979c-0.323-0.387-0.58-0.822-0.75-1.303l2.291-1.031
				c0.647,1.186,1.494,1.779,2.521,1.779c0.422,0,0.808-0.109,1.166-0.334c0.355-0.227,0.615-0.52,0.788-0.873
				c0.168-0.348,0.202-0.717,0.103-1.125c-0.099-0.408-0.412-0.799-0.924-1.146l-2.621-1.4c-0.458-0.236-0.848-0.463-1.188-0.707
				c-0.336-0.246-0.616-0.504-0.832-0.766c-0.219-0.273-0.382-0.564-0.487-0.893c-0.108-0.324-0.167-0.705-0.167-1.152
				c0-1.127,0.394-2.068,1.194-2.852c0.786-0.795,1.764-1.188,2.914-1.188c1.741,0,3.013,0.816,3.808,2.439L343.17,1059.742z"/>
			<path fill="#FFFFFF" d="M352.783,1050.179c0,0.5-0.18,0.922-0.539,1.289c-0.355,0.352-0.793,0.514-1.308,0.514
				c-0.52,0-0.95-0.162-1.309-0.514c-0.356-0.367-0.536-0.789-0.536-1.289c0-0.514,0.18-0.951,0.536-1.332
				c0.358-0.369,0.789-0.539,1.309-0.539c0.515,0,0.952,0.17,1.308,0.539C352.604,1049.228,352.783,1049.666,352.783,1050.179z
				 M352.271,1070.472h-2.68v-13.928h2.68V1070.472z"/>
			<path fill="#FFFFFF" d="M369.596,1070.21c0,2.617-0.504,4.639-1.494,6.092c-0.984,1.434-2.76,2.143-5.293,2.143
				c-1.96,0-3.57-0.564-4.82-1.699c-1.229-1.129-1.87-2.664-1.904-4.605h2.673c0,1.244,0.39,2.205,1.149,2.898
				c0.76,0.691,1.769,1.027,3.023,1.027c1.524,0,2.57-0.449,3.137-1.34c0.561-0.896,0.844-2.158,0.844-3.771v-2.656h-0.054
				c-0.56,0.836-1.245,1.486-2.068,1.951c-0.825,0.471-1.716,0.705-2.663,0.705c-2.066,0-3.691-0.725-4.883-2.176
				c-1.188-1.453-1.783-3.24-1.783-5.357c0-2.012,0.604-3.715,1.813-5.121c1.217-1.443,2.787-2.17,4.73-2.17
				c2.047,0,3.662,0.936,4.854,2.801h0.054v-2.387h2.686V1070.21z M362.541,1068.566c1.405,0,2.507-0.477,3.299-1.459
				c0.816-0.982,1.219-2.191,1.219-3.6c0-1.381-0.402-2.568-1.219-3.543c-0.792-0.967-1.894-1.447-3.299-1.447
				c-1.33,0-2.398,0.486-3.217,1.484c-0.787,0.973-1.189,2.133-1.189,3.506c0,1.408,0.402,2.609,1.189,3.572
				C360.143,1068.072,361.211,1068.566,362.541,1068.566z"/>
			<path fill="#FFFFFF" d="M375.758,1058.417h0.048c0.401-0.729,0.981-1.301,1.733-1.691c0.748-0.398,1.578-0.596,2.468-0.596
				c0.911,0,1.683,0.143,2.321,0.414c0.639,0.279,1.145,0.676,1.535,1.191c0.385,0.518,0.662,1.154,0.825,1.887
				c0.177,0.75,0.253,1.592,0.253,2.551v8.299h-2.67v-7.971c0-1.377-0.205-2.369-0.6-3.008c-0.396-0.656-1.219-0.977-2.467-0.977
				c-0.463,0-0.846,0.041-1.165,0.127c-0.319,0.09-0.591,0.223-0.831,0.383c-0.238,0.174-0.433,0.377-0.598,0.58
				c-0.152,0.219-0.307,0.459-0.439,0.723c-0.061,0.133-0.121,0.311-0.166,0.531c-0.05,0.211-0.091,0.441-0.131,0.676
				c-0.041,0.223-0.078,0.447-0.096,0.678c-0.014,0.236-0.021,0.408-0.021,0.551v1.314v6.393h-2.684v-13.928h2.684V1058.417z"/>
			<path fill="#FFFFFF" d="M397.025,1044.644h2.678v14.223h0.057c1.235-1.822,2.849-2.736,4.855-2.736
				c1.945,0,3.518,0.727,4.732,2.17c1.207,1.406,1.814,3.109,1.814,5.121c0,2.117-0.607,3.904-1.786,5.357
				c-1.198,1.451-2.815,2.176-4.878,2.176c-0.949,0-1.842-0.234-2.669-0.705c-0.821-0.465-1.511-1.115-2.069-1.951h-0.057v2.174
				h-2.678V1044.644z M403.954,1068.566c1.417,0,2.516-0.477,3.313-1.459c0.812-0.982,1.21-2.191,1.21-3.6
				c0-1.381-0.398-2.568-1.21-3.543c-0.797-0.967-1.896-1.447-3.313-1.447c-1.328,0-2.397,0.486-3.211,1.484
				c-0.796,0.973-1.188,2.133-1.188,3.506c0,1.408,0.393,2.609,1.188,3.572C401.557,1068.072,402.626,1068.566,403.954,1068.566z"/>
			<path fill="#FFFFFF" d="M411.547,1056.544h3.123l4.699,8.844l4.371-8.844h3.012l-11.277,21.9h-3.037l5.477-10.355
				L411.547,1056.544z"/>
			<path fill="#FFFFFF" d="M440.261,1064.843l-2.56,5.629h-3.008l10.715-23.387l10.706,23.387h-3l-2.554-5.629H440.261z
				 M445.408,1053.218l-3.995,9.072h7.979L445.408,1053.218z"/>
			<path fill="#FFFFFF" d="M460.494,1070.472h-2.676v-25.828h2.676V1070.472z"/>
			<path fill="#FFFFFF" d="M467.1,1070.472h-2.678v-25.828h2.678V1070.472z"/>
			<path fill="#FFFFFF" d="M477.273,1059.826v2.227h-6.516v-2.227H477.273z"/>
			<path fill="#FFFFFF" d="M487.678,1047.355c-0.828-0.377-1.42-0.564-1.774-0.564c-0.58,0-0.993,0.174-1.247,0.545
				c-0.262,0.367-0.439,0.814-0.539,1.357c-0.058,0.393-0.088,0.707-0.11,0.936c-0.005,0.234-0.005,0.543-0.005,0.945v5.971h3.676
				v2.498h-3.676v11.43h-2.688v-11.43H480.1v-2.498h1.215v-6.777c0-3.652,1.502-5.482,4.504-5.482c0.652,0,1.273,0.129,1.859,0.359
				V1047.355z"/>
			<path fill="#FFFFFF" d="M491.816,1058.802h0.09c0.34-0.826,0.826-1.484,1.492-1.955c0.66-0.475,1.432-0.717,2.322-0.717
				c0.741,0,1.463,0.227,2.211,0.688l-1.225,2.436c-0.439-0.387-0.986-0.561-1.637-0.561c-1.381,0-2.285,0.555-2.742,1.664
				c-0.199,0.516-0.338,1.027-0.404,1.531c-0.063,0.498-0.107,1.092-0.107,1.746v6.838h-2.668v-13.928h2.668V1058.802z"/>
			<path fill="#FFFFFF" d="M501.023,1063.957c0.032,1.242,0.434,2.326,1.193,3.246c0.769,0.908,1.762,1.363,2.996,1.363
				c0.961,0,1.775-0.215,2.396-0.666c0.625-0.447,1.217-1.129,1.766-2.041l2.259,1.283c-0.647,1.189-1.544,2.117-2.685,2.793
				c-1.14,0.67-2.399,1.02-3.768,1.02c-2.074,0-3.746-0.697-4.988-2.082c-1.234-1.416-1.85-3.154-1.85-5.238
				c0-2.195,0.586-4.012,1.752-5.426c1.15-1.385,2.822-2.078,5.028-2.078c2.142,0,3.763,0.693,4.86,2.078
				c1.101,1.389,1.649,3.162,1.649,5.336v0.412H501.023z M508.965,1061.931c-0.162-1.07-0.572-1.926-1.234-2.543
				c-0.663-0.619-1.529-0.947-2.606-0.947c-0.517,0-0.993,0.09-1.444,0.264c-0.439,0.162-0.844,0.414-1.181,0.721
				c-0.354,0.326-0.642,0.707-0.879,1.127c-0.222,0.424-0.374,0.895-0.448,1.379H508.965z"/>
			<path fill="#FFFFFF" d="M515.551,1063.957c0.033,1.242,0.428,2.326,1.182,3.246c0.766,0.908,1.775,1.363,3.002,1.363
				c0.975,0,1.775-0.215,2.393-0.666c0.631-0.447,1.215-1.129,1.777-2.041l2.254,1.283c-0.643,1.189-1.535,2.117-2.689,2.793
				c-1.146,0.67-2.395,1.02-3.766,1.02c-2.09,0-3.748-0.697-5.006-2.082c-1.221-1.416-1.833-3.154-1.833-5.238
				c0-2.195,0.579-4.012,1.758-5.426c1.145-1.385,2.826-2.078,5.025-2.078c2.133,0,3.756,0.693,4.842,2.078
				c1.121,1.389,1.668,3.162,1.668,5.336v0.412H515.551z M523.489,1061.931c-0.156-1.07-0.576-1.926-1.248-2.543
				c-0.658-0.619-1.521-0.947-2.592-0.947c-0.523,0-0.996,0.09-1.449,0.264c-0.443,0.162-0.834,0.414-1.182,0.721
				c-0.354,0.326-0.646,0.707-0.863,1.127c-0.232,0.424-0.387,0.895-0.467,1.379H523.489z"/>
			<path fill="#FFFFFF" d="M534.825,1059.826v2.227h-6.523v-2.227H534.825z"/>
			<path fill="#FFFFFF" d="M548.717,1068.298h-0.063c-0.553,0.836-1.244,1.486-2.066,1.951c-0.826,0.471-1.717,0.705-2.66,0.705
				c-2.068,0-3.693-0.725-4.877-2.176c-1.193-1.453-1.799-3.24-1.799-5.357c0-2.012,0.609-3.715,1.822-5.121
				c1.213-1.443,2.785-2.17,4.732-2.17c2.002,0,3.619,0.914,4.848,2.736h0.063v-14.223h2.672v25.828h-2.672V1068.298z
				 M544.342,1068.566c1.404,0,2.514-0.477,3.299-1.459c0.814-0.982,1.227-2.191,1.227-3.6c0-1.381-0.412-2.568-1.227-3.543
				c-0.785-0.967-1.895-1.447-3.299-1.447c-1.332,0-2.402,0.486-3.213,1.484c-0.793,0.973-1.189,2.133-1.189,3.506
				c0,1.408,0.396,2.609,1.189,3.572C541.94,1068.072,543.01,1068.566,544.342,1068.566z"/>
			<path fill="#FFFFFF" d="M555.768,1058.273c1.451-1.426,3.217-2.143,5.305-2.143c2.08,0,3.832,0.717,5.25,2.143
				c1.455,1.418,2.174,3.197,2.174,5.271c0,2.076-0.719,3.83-2.174,5.275c-1.418,1.418-3.17,2.135-5.25,2.135
				c-2.088,0-3.854-0.717-5.305-2.135c-1.43-1.445-2.145-3.199-2.145-5.275C553.624,1061.47,554.338,1059.691,555.768,1058.273z
				 M556.299,1063.544c0,1.281,0.48,2.424,1.412,3.406c0.906,0.971,2.035,1.439,3.361,1.439c1.299,0,2.428-0.469,3.354-1.439
				c0.936-0.982,1.398-2.125,1.398-3.406c0-1.313-0.463-2.463-1.398-3.426c-0.926-0.955-2.055-1.426-3.354-1.426
				c-1.326,0-2.455,0.471-3.361,1.426C556.78,1061.082,556.299,1062.232,556.299,1063.544z"/>
			<path fill="#FFFFFF" d="M575.709,1065.423l4.094-9.646l4.082,9.646l4.055-8.879h3.023l-7.078,14.41l-4.082-9.313l-4.094,9.313
				l-7.084-14.41h3.033L575.709,1065.423z"/>
			<path fill="#FFFFFF" d="M594.991,1058.417h0.057c0.395-0.729,0.969-1.301,1.721-1.691c0.758-0.398,1.582-0.596,2.469-0.596
				c0.916,0,1.697,0.143,2.328,0.414c0.633,0.279,1.141,0.676,1.533,1.191c0.385,0.518,0.662,1.154,0.822,1.887
				c0.172,0.75,0.256,1.592,0.256,2.551v8.299h-2.678v-7.971c0-1.377-0.182-2.369-0.592-3.008c-0.396-0.656-1.213-0.977-2.477-0.977
				c-0.447,0-0.834,0.041-1.158,0.127c-0.309,0.09-0.592,0.223-0.832,0.383c-0.236,0.174-0.436,0.377-0.592,0.58
				c-0.164,0.219-0.313,0.459-0.441,0.723c-0.059,0.133-0.119,0.311-0.168,0.531c-0.053,0.211-0.102,0.441-0.133,0.676
				c-0.043,0.223-0.063,0.447-0.098,0.678c-0.006,0.236-0.018,0.408-0.018,0.551v1.314v6.393h-2.68v-13.928h2.68V1058.417z"/>
			<path fill="#FFFFFF" d="M610.668,1070.472h-2.684v-25.828h2.684V1070.472z"/>
			<path fill="#FFFFFF" d="M615.368,1058.273c1.436-1.426,3.211-2.143,5.301-2.143c2.08,0,3.826,0.717,5.27,2.143
				c1.441,1.418,2.158,3.197,2.158,5.271c0,2.076-0.717,3.83-2.158,5.275c-1.443,1.418-3.189,2.135-5.27,2.135
				c-2.09,0-3.865-0.717-5.301-2.135c-1.438-1.445-2.146-3.199-2.146-5.275C613.221,1061.47,613.93,1059.691,615.368,1058.273z
				 M615.905,1063.544c0,1.281,0.469,2.424,1.395,3.406c0.912,0.971,2.037,1.439,3.369,1.439c1.301,0,2.426-0.469,3.365-1.439
				c0.924-0.982,1.389-2.125,1.389-3.406c0-1.313-0.465-2.463-1.389-3.426c-0.939-0.955-2.064-1.426-3.365-1.426
				c-1.332,0-2.457,0.471-3.369,1.426C616.374,1061.082,615.905,1062.232,615.905,1063.544z"/>
			<path fill="#FFFFFF" d="M643.608,1070.472h-2.684v-2.174h-0.055c-1.191,1.762-2.773,2.656-4.736,2.656
				c-2.041,0-3.668-0.725-4.879-2.176c-1.189-1.453-1.785-3.24-1.785-5.357c0-2.012,0.6-3.715,1.818-5.121
				c1.207-1.443,2.797-2.17,4.752-2.17c1.992,0,3.6,0.914,4.83,2.736h0.055v-2.322h2.684V1070.472z M636.551,1068.566
				c1.42,0,2.506-0.477,3.305-1.459c0.811-0.982,1.219-2.191,1.219-3.6c0-1.381-0.408-2.568-1.219-3.543
				c-0.799-0.967-1.885-1.447-3.305-1.447c-1.326,0-2.4,0.486-3.207,1.484c-0.797,0.973-1.201,2.133-1.201,3.506
				c0,1.408,0.404,2.609,1.201,3.572C634.151,1068.072,635.225,1068.566,636.551,1068.566z"/>
			<path fill="#FFFFFF" d="M657.465,1068.298h-0.051c-0.561,0.836-1.26,1.486-2.07,1.951c-0.824,0.471-1.709,0.705-2.662,0.705
				c-2.068,0-3.697-0.725-4.889-2.176c-1.186-1.453-1.783-3.24-1.783-5.357c0-2.012,0.617-3.715,1.818-5.121
				c1.211-1.443,2.785-2.17,4.738-2.17c2,0,3.605,0.914,4.848,2.736h0.051v-14.223h2.684v25.828h-2.684V1068.298z M653.096,1068.566
				c1.404,0,2.5-0.477,3.295-1.459c0.814-0.982,1.223-2.191,1.223-3.6c0-1.381-0.408-2.568-1.223-3.543
				c-0.795-0.967-1.891-1.447-3.295-1.447c-1.332,0-2.404,0.486-3.213,1.484c-0.793,0.973-1.193,2.133-1.193,3.506
				c0,1.408,0.4,2.609,1.193,3.572C650.692,1068.072,651.764,1068.566,653.096,1068.566z"/>
			<path fill="#FFFFFF" d="M667.825,1069.222c0,0.477-0.166,0.877-0.492,1.215c-0.35,0.342-0.762,0.518-1.238,0.518
				s-0.883-0.176-1.207-0.518c-0.346-0.338-0.514-0.738-0.514-1.215c0-0.455,0.168-0.861,0.514-1.205
				c0.324-0.344,0.73-0.514,1.207-0.514s0.889,0.17,1.238,0.514C667.659,1068.361,667.825,1068.767,667.825,1069.222z"/>
			<path fill="#FFFFFF" d="M682.461,1060.501c-1.107-1.248-2.443-1.873-3.979-1.873c-1.297,0-2.404,0.49-3.309,1.459
				c-0.9,0.984-1.328,2.143-1.328,3.42c0,1.453,0.428,2.633,1.328,3.539c0.934,0.941,2.096,1.404,3.475,1.404
				c1.43,0,2.705-0.633,3.813-1.844v3.418c-1.15,0.613-2.428,0.93-3.836,0.93c-2.064,0-3.834-0.717-5.303-2.123
				c-1.445-1.379-2.16-3.113-2.16-5.197c0-2.143,0.715-3.943,2.16-5.361c1.453-1.426,3.271-2.143,5.449-2.143
				c1.438,0,2.662,0.309,3.689,0.914V1060.501z"/>
			<path fill="#FFFFFF" d="M686.241,1058.273c1.451-1.426,3.219-2.143,5.297-2.143c2.082,0,3.848,0.717,5.262,2.143
				c1.459,1.418,2.174,3.197,2.174,5.271c0,2.076-0.715,3.83-2.174,5.275c-1.414,1.418-3.18,2.135-5.262,2.135
				c-2.078,0-3.846-0.717-5.297-2.135c-1.428-1.445-2.145-3.199-2.145-5.275C684.096,1061.47,684.813,1059.691,686.241,1058.273z
				 M686.78,1063.544c0,1.281,0.469,2.424,1.4,3.406c0.898,0.971,2.035,1.439,3.357,1.439c1.307,0,2.436-0.469,3.361-1.439
				c0.936-0.982,1.398-2.125,1.398-3.406c0-1.313-0.463-2.463-1.398-3.426c-0.926-0.955-2.055-1.426-3.361-1.426
				c-1.322,0-2.459,0.471-3.357,1.426C687.249,1061.082,686.78,1062.232,686.78,1063.544z"/>
			<path fill="#FFFFFF" d="M704.008,1058.3h0.059c0.395-0.637,0.912-1.152,1.59-1.559c0.666-0.414,1.363-0.611,2.09-0.611
				c1.736,0,3.07,0.82,4.027,2.473c0.432-0.754,1.037-1.359,1.803-1.811c0.756-0.443,1.594-0.662,2.473-0.662
				c3.086,0,4.617,2.004,4.617,6.004v8.338h-2.672v-7.889c0-0.352-0.012-0.707-0.055-1.047c-0.02-0.359-0.086-0.695-0.156-1.012
				c-0.086-0.338-0.197-0.641-0.357-0.918c-0.162-0.264-0.385-0.525-0.654-0.74c-0.357-0.238-0.818-0.35-1.365-0.35
				c-0.566,0-1.031,0.111-1.426,0.35c-0.389,0.215-0.674,0.492-0.887,0.809c-0.211,0.33-0.377,0.75-0.486,1.242
				c-0.115,0.492-0.195,0.947-0.227,1.344c-0.037,0.391-0.045,0.85-0.045,1.373v6.838h-2.684v-7.381c0-0.473,0-0.861-0.02-1.184
				c-0.027-0.33-0.086-0.721-0.186-1.195c-0.094-0.516-0.221-0.887-0.383-1.137c-0.162-0.275-0.414-0.512-0.738-0.738
				c-0.35-0.213-0.746-0.32-1.223-0.32c-1.369,0-2.254,0.586-2.654,1.773c-0.178,0.57-0.293,1.08-0.354,1.586
				c-0.063,0.484-0.088,1.07-0.088,1.758v6.838h-2.684v-13.928h2.684V1058.3z"/>
		</g>
		<g>
			<g>
				<path fill="#FFFFFF" d="M240.912,1062.253c12.637,0,25.266,0,37.9,0c1.147,0,1.147-1.766,0-1.766c-12.635,0-25.264,0-37.9,0
					C239.77,1060.488,239.77,1062.253,240.912,1062.253L240.912,1062.253z"/>
			</g>
			<g>
				<path fill="#FFFFFF" d="M745.184,1062.253c12.633,0,25.268,0,37.893,0c1.156,0,1.156-1.766,0-1.766c-12.625,0-25.26,0-37.893,0
					C744.038,1060.488,744.038,1062.253,745.184,1062.253L745.184,1062.253z"/>
			</g>
		</g>
	</g>
</g>
<g>
	<g>
		<polygon fill="#F49A3A" points="472.125,139.292 460.315,145.394 475.273,217.231 361.317,321.74 444.374,490.608 
			459.725,496.316 378.047,325.283 490.164,220.448 		"/>
		<polygon fill="#F49A3A" points="223.811,764.97 218.564,752.109 278.661,710.914 269.478,555.558 444.429,490.615 
			459.725,496.316 283.12,564.482 291.903,715.896 		"/>
	</g>
	<g>
		<polygon fill="#F49A3A" points="794.571,774.417 798.772,760.511 739.992,718.257 754.163,563.695 581.475,491.335 
			565.871,496.316 740.779,572.355 726.608,725.083 		"/>
		<polygon fill="#F49A3A" points="566.215,139.292 577.815,145.8 560.298,217.06 670.46,325.561 581.432,491.365 565.871,496.316 
			653.614,328.513 545.304,219.741 		"/>
	</g>
	<g>
		<polygon fill="#F49A3A" points="642.057,877.488 652.236,867.13 619.848,802.39 704.257,672.14 585.005,527.782 568.873,524.94 
			688.376,673.58 604.822,802.21 		"/>
		<polygon fill="#F49A3A" points="735.175,209.015 742.421,220.165 693.777,275.114 740.865,422.388 584.95,527.795 568.873,524.94 
			724.579,417.172 679.255,270.514 		"/>
	</g>
	<g>
		<polygon fill="#F49A3A" points="371.355,870.464 360.136,861.804 394.973,797.248 313.43,664.73 437.399,526.516 453.643,524.369 
			330.227,666.304 411.309,797.248 		"/>
		<polygon fill="#F49A3A" points="301.122,201.548 293.41,212.385 339.637,269.382 286.232,414.49 437.454,526.516 453.643,524.369 
			302.728,409.976 354.349,265.414 		"/>
	</g>
	<polygon fill="#F49A3A" points="638.441,163.501 653.128,163.501 630.297,244.066 481.504,284.481 476.258,474.076 
		286.232,452.033 223.939,592.166 140.49,602.007 142.458,587.443 214.886,579.175 278.261,437.862 463.662,460.299 
		469.959,273.718 619.934,234.354 	"/>
	<polygon fill="#F49A3A" points="789.399,261.822 802.413,268.638 744.801,329.41 594.244,296.167 501.616,461.671 343.518,353.97 
		223.306,449.191 144.82,419.189 153.32,407.195 221.313,433.483 343.032,337.72 496.85,443.625 589.015,281.276 740.126,315.996 	
		"/>
	<polygon fill="#F49A3A" points="875.93,420.419 884.061,432.48 803.908,459.266 687.688,359.979 525.886,462.803 439.195,294.377 
		287.265,322.43 232.839,259.504 246.137,252.88 293.145,307.656 446.662,279.825 530.457,444.677 690.32,344.418 806.306,445.273 	
		"/>
	<polygon fill="#F49A3A" points="879.14,601.023 880.715,614.013 799.824,600.431 742.255,457.144 552.715,475.583 551.123,284.665 
		403.78,240.443 383.631,159.042 398.393,159.165 415.602,229.858 564.253,275.003 564.875,461.388 751.548,444.363 
		809.357,587.964 	"/>
	<g>
		<g>
			<polygon fill="#F49A3A" points="461.933,893.718 474.849,890.601 477.438,817.267 613.008,742.908 572.563,559.119 
				559.019,549.924 597.601,735.478 463.735,810.595 			"/>
			<polygon fill="#F49A3A" points="853.358,346.934 853.358,361.743 785.259,386.53 758.493,538.632 572.513,559.101 
				559.019,549.924 747.47,527.217 773.844,376.85 			"/>
		</g>
		<polygon fill="#F49A3A" points="306.166,830.583 291.903,827.089 333.265,754.281 487.402,750.474 537.659,567.576 
			716.964,634.253 810.845,512.99 894.234,523.305 888.852,536.983 816.546,527.764 721.331,649.914 546.608,583.96 496.05,763.671 
			341.021,766.187 		"/>
		<polygon fill="#F49A3A" points="182.978,699.142 171.956,689.423 242.391,644.119 380.691,712.273 510.067,573.591 
			637.967,715.845 777.399,652.003 846.481,699.83 835.374,709.457 775.597,667.73 634.572,731.746 510.405,592.251 
			382.223,727.982 243.726,658.265 		"/>
		<polygon fill="#F49A3A" points="136.707,524.498 131.682,510.85 215.907,503.931 305.139,628.035 486.775,566.714 530.85,750.941 
			685.086,759.878 722.96,833.96 708.47,837.226 675.86,772.824 520.129,763.296 478.017,583.222 298.877,642.519 210.249,516.945 
					"/>
		<polygon fill="#F49A3A" points="176.605,348.323 178.174,335.333 253.499,367.796 275.284,520.673 463.76,547.9 419.833,733.707 
			552.402,811.751 552.58,895.613 538.274,891.972 538.39,819.218 404.777,739.968 448.568,558.798 263.217,530.87 241.272,377.637 
					"/>
	</g>
	<g>
		<path fill="#F49A3A" d="M507.649,884.376l-78.013-48.104l-91.618,2.295l-47.562-79.688l-82.312-38.33l-6.464-91.697
			l-53.251-72.219l36.682-87.478l-14.177-89.939l73.868-53.688l28.237-86.31l90.48-15.752l67.367-64.144l87.632,27.462
			l88.063-24.238l63.743,65.361l89.244,18.199l26.269,88.075l70.989,60.502l-16.951,89.194l35.132,85.602l-56.91,70.232
			l-7.676,92.098l-82.128,34.346l-49.899,79.268l-92.805-6.809L507.649,884.376z M433.918,820.417l73.929,45.58l74.003-43.447
			l88.266,6.477l47.513-75.479l77.896-32.572l7.282-87.398l54.094-66.752l-33.36-81.297l16.114-84.791l-67.569-57.587
			l-24.903-83.499l-84.741-17.276l-60.644-62.176l-83.561,22.997l-83.205-26.072l-64.107,61.031l-85.867,14.952l-26.872,82.164
			l-70.202,51.019l13.377,84.834l-34.959,83.358l50.668,68.701l6.132,87.01l78.29,36.461l45.335,75.947L433.918,820.417z"/>
	</g>
	<polygon fill="#F49A3A" points="518.574,180.132 504.206,163.501 518.574,139.981 532.252,163.501 	"/>
	<polygon fill="#F49A3A" points="363.076,215.682 342.626,207.631 344.41,180.132 367.456,194.598 	"/>
	<polygon fill="#F49A3A" points="238.597,318.579 216.75,320.96 205.543,295.779 232.673,297.877 	"/>
	<polygon fill="#F49A3A" points="177.94,468.442 159.704,480.7 138.079,463.614 163.074,452.863 	"/>
	<polygon fill="#F49A3A" points="192.234,629.849 181.791,649.175 154.704,644.101 171.839,622.96 	"/>
	<polygon fill="#F49A3A" points="285.137,764.97 284.879,786.939 258.53,795.041 263.881,768.353 	"/>
	<polygon fill="#F49A3A" points="427.355,845.394 437.344,864.958 417.779,884.376 410.109,858.267 	"/>
	<polygon fill="#F49A3A" points="588.739,846.335 606.686,859.017 598.382,885.298 579.452,865.751 	"/>
	<polygon fill="#F49A3A" points="732.439,773.33 754.224,776.212 759.088,803.343 733.239,794.837 	"/>
	<polygon fill="#F49A3A" points="824.678,643.24 845.319,635.667 862.233,657.423 835.392,661.912 	"/>
	<polygon fill="#F49A3A" points="848.172,483.48 862.934,467.182 888.022,478.585 866.347,495.037 	"/>
	<polygon fill="#F49A3A" points="793.728,330.204 799.227,308.898 826.745,307.336 815.2,331.981 	"/>
	<polygon fill="#F49A3A" points="675.19,219.741 670.147,198.318 693.789,184.142 695.025,211.333 	"/>
	<polygon fill="#F49A3A" points="479.413,135.03 487.938,144.612 518.229,128.603 547.248,145.793 556.695,137.201 518.229,113.251 
			"/>
	<polygon fill="#F49A3A" points="306.147,193.386 318.147,197.906 337.521,169.657 371.213,171.38 375.58,159.386 330.386,156.064 	
		"/>
	<polygon fill="#F49A3A" points="180.167,325.566 192.892,323.992 196.915,289.974 227.544,275.833 225.84,263.188 184.275,281.258 
			"/>
	<polygon fill="#F49A3A" points="127.666,502.448 138.202,495.142 125.95,463.146 146.505,436.393 139.112,425.985 110.709,461.308 
			"/>
	<polygon fill="#F49A3A" points="165.817,681.822 171.747,670.449 146.025,647.816 151.794,614.578 140.404,608.796 
		131.682,653.277 	"/>
	<polygon fill="#F49A3A" points="282.751,824.083 282.72,811.265 249.421,803.183 239.082,771.066 226.308,771.25 239.261,814.685 	
		"/>
	<polygon fill="#F49A3A" points="452.591,897.107 446.6,885.773 413.363,894.093 389.284,870.464 378.059,876.558 409.709,908.996 	
		"/>
	<polygon fill="#F49A3A" points="634.892,880.279 624.313,873.035 598.764,895.853 566.449,886.123 559.351,896.738 602.455,910.75 
			"/>
	<polygon fill="#F49A3A" points="788.704,782.82 775.972,781.324 763.96,813.406 730.828,819.808 729.474,832.509 774.152,824.876 	
		"/>
	<polygon fill="#F49A3A" points="882.191,622.917 870.222,627.519 874.502,661.5 848.142,682.572 852.853,694.449 888.858,666.919 	
		"/>
	<polygon fill="#F49A3A" points="886.564,438.299 878.107,447.937 897.697,476.032 884.153,506.944 893.846,515.272 
		912.925,474.156 	"/>
	<polygon fill="#F49A3A" points="807.136,273.072 804.123,285.532 834.531,301.309 836.911,334.971 849.366,337.83 847.139,292.563 
			"/>
	<polygon fill="#F49A3A" points="664.008,162.603 667.132,175.039 701.391,174.867 719.148,203.565 731.503,200.312 
		708.489,161.262 	"/>
</g>
</svg>
